<mxfile host="app.diagrams.net" modified="2023-08-15T06:53:08.402Z" agent="Mozilla/5.0 (Windows NT 10.0; Win64; x64) AppleWebKit/537.36 (KHTML, like Gecko) Chrome/115.0.0.0 Safari/537.36" version="21.6.6" etag="Jls9u7iVxqJhnPTrCQfM" type="github">
  <diagram name="Page-1" id="Tn8y1rj0tcDzChjZclSd">
    <mxGraphModel>
      <root>
        <mxCell id="0" />
        <mxCell id="1" parent="0" />
      </root>
    </mxGraphModel>
  </diagram>
</mxfile>
